<svg width="12" height="13" viewBox="0 0 12 13" fill="none" xmlns="http://www.w3.org/2000/svg">
<path d="M8.41 8.24249C8.22757 8.15082 8.00532 8.22194 7.91 8.40249C7.82192 8.58643 7.89474 8.80711 8.075 8.90249C8.515 9.12749 8.765 9.40249 8.765 9.66749C8.765 10.2325 7.585 10.8625 6.005 10.8625C4.425 10.8625 3.24 10.2375 3.24 9.68749C3.24 9.42749 3.49 9.14749 3.93 8.92249C4.06195 8.86958 4.15264 8.74661 4.1642 8.60492C4.17576 8.46323 4.1062 8.32718 3.98457 8.25359C3.86294 8.17999 3.71015 8.1815 3.59 8.25749C2.98295 8.48629 2.55974 9.04151 2.5 9.68749C2.5 10.7975 4 11.6325 6 11.6325C8 11.6325 9.5 10.7975 9.5 9.68749C9.44578 9.03591 9.02162 8.47361 8.41 8.24249Z" fill="#424040"/>
<path fill-rule="evenodd" clip-rule="evenodd" d="M5.625 9.90749V7.74749C3.97845 7.54911 2.77126 6.10264 2.87063 4.44716C2.97 2.79168 4.34154 1.5 6 1.5C7.65846 1.5 9.03 2.79168 9.12937 4.44716C9.22874 6.10264 8.02155 7.54911 6.375 7.74749V9.90749C6.375 10.1146 6.20711 10.2825 6 10.2825C5.79289 10.2825 5.625 10.1146 5.625 9.90749ZM8.21211 3.72057C7.8409 2.82703 6.96757 2.24547 6 2.24749C4.68394 2.25024 3.61775 3.31643 3.615 4.63249C3.61298 5.60006 4.19454 6.47339 5.08808 6.8446C5.98161 7.21581 7.0108 7.01165 7.69498 6.32747C8.37916 5.64329 8.58332 4.6141 8.21211 3.72057Z" fill="#424040"/>
<path d="M4.795 5.18749C5.00211 5.18749 5.17 5.0196 5.17 4.81249C5.17 4.23811 5.63562 3.77249 6.21 3.77249C6.41711 3.77249 6.585 3.6046 6.585 3.39749C6.585 3.19038 6.41711 3.02249 6.21 3.02249C5.73394 3.02382 5.2779 3.2142 4.94221 3.55177C4.60652 3.88933 4.41867 4.34643 4.42 4.82249C4.42132 4.92062 4.46157 5.01421 4.5319 5.08267C4.60223 5.15112 4.69687 5.18883 4.795 5.18749Z" fill="#424040"/>
</svg>
