<svg width="13" height="12" viewBox="0 0 13 12" fill="none" xmlns="http://www.w3.org/2000/svg">
<path d="M7.71996 2.26838L8.04996 3.26838C8.19908 3.73122 8.6287 4.04587 9.11496 4.04838H10.155C10.6427 4.04528 11.0764 4.3582 11.2272 4.82206C11.378 5.28592 11.2113 5.79405 10.815 6.07838L9.95996 6.69838C9.56639 6.98411 9.40098 7.4904 9.54996 7.95338L9.87996 8.95338C10.0432 9.41794 9.88384 9.93462 9.48731 10.2266C9.09078 10.5185 8.55009 10.5172 8.15496 10.2234L7.31496 9.59838C6.9212 9.31312 6.38873 9.31312 5.99496 9.59838L5.15496 10.2234C4.76204 10.511 4.22831 10.5117 3.83456 10.2253C3.44082 9.9388 3.27727 9.43075 3.42996 8.96838L3.75996 7.96838C3.90895 7.5054 3.74354 6.99911 3.34996 6.71338L2.47496 6.08338C2.07061 5.79846 1.90105 5.28203 2.05782 4.81288C2.21459 4.34373 2.66055 4.03297 3.15496 4.04838H4.19496C4.67856 4.04729 5.10736 3.73727 5.25996 3.27838L5.58996 2.27838C5.7379 1.81648 6.16633 1.50229 6.65133 1.50001C7.13634 1.49774 7.5677 1.80789 7.71996 2.26838Z" fill="#008A37"/>
</svg>
