<?xml version="1.0" standalone="no"?>
<!DOCTYPE svg PUBLIC "-//W3C//DTD SVG 20010904//EN"
 "http://www.w3.org/TR/2001/REC-SVG-20010904/DTD/svg10.dtd">
<svg version="1.0" xmlns="http://www.w3.org/2000/svg"
 width="887.000000pt" height="1008.000000pt" viewBox="0 0 887.000000 1008.000000"
 preserveAspectRatio="xMidYMid meet">

<g transform="translate(0.000000,1008.000000) scale(0.100000,-0.100000)"
fill="#000000" stroke="none">
<path d="M5060 10059 c-1167 -49 -2049 -280 -2578 -676 -103 -78 -307 -277
-397 -388 -225 -278 -403 -624 -539 -1041 -25 -76 -101 -347 -169 -601 l-124
-463 1578 0 c1494 0 1578 1 1583 18 3 9 57 213 121 452 161 600 215 760 317
930 99 165 235 251 443 280 202 28 372 -5 470 -92 100 -87 116 -253 55 -548
-31 -148 -214 -822 -260 -955 -52 -155 -155 -361 -223 -450 -106 -139 -277
-251 -447 -294 -163 -41 -450 -61 -1019 -70 l-414 -6 -185 -692 c-102 -381
-183 -695 -181 -698 3 -2 140 -9 305 -15 768 -26 1005 -73 1169 -231 74 -71
127 -164 151 -265 23 -100 14 -346 -20 -512 -30 -149 -254 -989 -337 -1265
-113 -375 -228 -651 -318 -764 -43 -53 -143 -125 -216 -156 -161 -68 -448 -75
-585 -16 -137 60 -166 172 -120 459 29 176 60 301 304 1211 119 443 216 811
216 818 0 8 -404 11 -1574 11 l-1575 0 -15 -53 c-33 -115 -217 -812 -255 -962
-135 -542 -198 -933 -208 -1281 -9 -302 15 -449 101 -629 133 -276 399 -518
786 -714 162 -82 276 -128 452 -181 491 -149 1160 -219 1953 -207 490 8 806
34 1195 98 1163 191 2002 655 2502 1382 358 523 646 1297 843 2270 83 412 111
661 102 915 -7 193 -23 279 -72 377 -130 266 -417 471 -853 610 -30 10 -50 20
-45 24 4 4 68 31 142 60 533 210 941 467 1153 728 267 329 480 877 570 1473
20 131 17 541 -5 657 -65 344 -212 623 -441 841 -384 365 -1148 565 -2336 612
-277 11 -725 11 -1000 -1z"/>
</g>
</svg>
