<svg width="13" height="12" viewBox="0 0 13 12" fill="none" xmlns="http://www.w3.org/2000/svg">
<path d="M4.95992 6.00022H4.99992C6.10449 6.00022 6.99992 5.10479 6.99992 4.00022V3.21522C6.99861 2.76659 6.81844 2.337 6.49933 2.02165C6.18023 1.7063 5.74854 1.53123 5.29992 1.53522H4.63992C3.71322 1.53797 2.96267 2.28852 2.95992 3.21522V4.00022C2.95992 5.10479 3.85535 6.00022 4.95992 6.00022Z" fill="#008A37"/>
<path d="M9.24993 5.62522C10.0784 5.62522 10.7499 4.95365 10.7499 4.12522V3.55022C10.7499 2.85823 10.1919 2.29572 9.49992 2.29022H8.99993C8.30795 2.29572 7.7499 2.85823 7.74993 3.55022V4.12522C7.74993 4.95365 8.4215 5.62522 9.24993 5.62522Z" fill="#008A37"/>
<path d="M11.6949 7.71022L11.6149 7.31522C11.5204 6.77298 11.0504 6.37674 10.4999 6.37522H7.44992C7.0772 6.37602 6.72975 6.56382 6.52492 6.87522H2.99992C2.64626 6.87548 2.3062 7.01151 2.04992 7.25522C1.82974 7.45698 1.67479 7.71987 1.60492 8.01022C1.60492 8.03522 1.60492 8.06022 1.60492 8.08022V8.21022L1.49992 8.61022C1.39298 9.04784 1.48838 9.51034 1.75976 9.86992C2.03114 10.2295 2.44976 10.4481 2.89992 10.4652H7.03992C7.14617 10.4649 7.25196 10.4514 7.35492 10.4252H7.41992C7.49506 10.4038 7.56858 10.3771 7.63992 10.3452L7.71992 10.3002C7.7796 10.2665 7.83645 10.2281 7.88992 10.1852L7.96992 10.1202C8.0191 10.0744 8.06583 10.026 8.10992 9.97522C8.10992 9.95022 8.15492 9.93022 8.17492 9.90022C8.2308 9.8268 8.27937 9.7481 8.31992 9.66522C8.34125 9.61979 8.35962 9.57303 8.37492 9.52522C8.39458 9.47968 8.41128 9.43291 8.42492 9.38522C8.42492 9.33522 8.44992 9.28522 8.45992 9.23522V9.16022H10.5999C10.953 9.14977 11.2823 8.97969 11.4951 8.69781C11.708 8.41592 11.7815 8.05268 11.6949 7.71022Z" fill="#008A37"/>
</svg>
