<svg width="12" height="16" viewBox="0 0 12 16" fill="none" xmlns="http://www.w3.org/2000/svg">
<path fill-rule="evenodd" clip-rule="evenodd" d="M11.6151 11.5325L11.7951 12.3875C11.9657 13.1267 11.7973 13.9035 11.3359 14.5056C10.8744 15.1078 10.1682 15.4725 9.41013 15.5H2.45012C1.69201 15.4725 0.985801 15.1078 0.524385 14.5056C0.0629686 13.9035 -0.105451 13.1267 0.0651244 12.3875L0.245124 11.5325C0.452151 10.3751 1.44709 9.52454 2.62262 9.50002H9.23763C10.4132 9.52454 11.4081 10.3751 11.6151 11.5325ZM9.41013 14.3675C9.79097 14.3631 10.1494 14.1867 10.3851 13.8875V13.895C10.6744 13.5322 10.7871 13.0594 10.6926 12.605L10.5126 11.75C10.4128 11.1164 9.8786 10.642 9.23763 10.6175H2.62263C1.98165 10.642 1.4475 11.1164 1.34763 11.75L1.16763 12.605C1.07549 13.057 1.18807 13.5265 1.47513 13.8875C1.71088 14.1867 2.06928 14.3631 2.45013 14.3675H9.41013Z" fill="#434343"/>
<path fill-rule="evenodd" clip-rule="evenodd" d="M6.30511 8.00001H5.55511C3.89826 8.00001 2.55511 6.65687 2.55511 5.00001V3.02001C2.55311 2.35105 2.81797 1.70892 3.291 1.23589C3.76402 0.762868 4.40616 0.498011 5.07511 0.500011H6.78511C7.45407 0.498011 8.0962 0.762868 8.56923 1.23589C9.04226 1.70892 9.30711 2.35105 9.30511 3.02001V5.00001C9.30511 6.65687 7.96197 8.00001 6.30511 8.00001ZM5.07511 1.62501C4.30468 1.62501 3.68011 2.24957 3.68011 3.02001V5.00001C3.68011 6.03555 4.51958 6.87501 5.55511 6.87501H6.30511C7.34065 6.87501 8.18011 6.03555 8.18011 5.00001V3.02001C8.18011 2.65003 8.03314 2.29521 7.77153 2.0336C7.50991 1.77198 7.15509 1.62501 6.78511 1.62501H5.07511Z" fill="#434343"/>
</svg>
